PathFileType	4	(X/Y/Z)	Run_400 02
DataRate	CameraRate	NumFrames	NumMarkers	Units	OrigDataRate	OrigDataStartFrame	OrigNumFrames
100	100	4	42	mm	100	61	128
Frame#	Time	LASI			RASI			LPSI			RPSI			RTH1			RTH2			RTH3			LTH1			LTH2			LTH3			RTB1			RTB2			RTB3			LTB1			LTB2			LTB3			RCAL			RTOE			RMT5			LCAL			LTOE			LMT5			LACR			RACR			CLAV			C7			RUA1			RUA2			RUA3			RLEL			RMEL			LUA1			LUA2			LUA3			LLEL			LMEL			RFAsuperior			RFAradius			RFAulna			LFAsuperior			LFAradius			LFAulna			
		X1	Y1	Z1	X2	Y2	Z2	X3	Y3	Z3	X4	Y4	Z4	X5	Y5	Z5	X6	Y6	Z6	X7	Y7	Z7	X8	Y8	Z8	X9	Y9	Z9	X10	Y10	Z10	X11	Y11	Z11	X12	Y12	Z12	X13	Y13	Z13	X14	Y14	Z14	X15	Y15	Z15	X16	Y16	Z16	X17	Y17	Z17	X18	Y18	Z18	X19	Y19	Z19	X20	Y20	Z20	X21	Y21	Z21	X22	Y22	Z22	X23	Y23	Z23	X24	Y24	Z24	X25	Y25	Z25	X26	Y26	Z26	X27	Y27	Z27	X28	Y28	Z28	X29	Y29	Z29	X30	Y30	Z30	X31	Y31	Z31	X32	Y32	Z32	X33	Y33	Z33	X34	Y34	Z34	X35	Y35	Z35	X36	Y36	Z36	X37	Y37	Z37	X38	Y38	Z38	X39	Y39	Z39	X40	Y40	Z40	X41	Y41	Z41	X42	Y42	Z42	

53	1.29	900.179663	942.761031	-445.112123	902.224606	949.887312	-202.698482	740.719843	1000.506739	-374.886099	736.3364759999999	996.008911	-276.264484	928.4586389999999	737.068548	-140.631316	1028.271299	698.418858	-148.308247	1028.602157	598.238831	-155.642274	857.016571	744.254861	-483.604363	909.5135309999999	640.437809	-457.078337	849.581009	533.460957	-432.110335	959.721488	475.923452	-234.195404	877.376581	497.480102	-181.8914	771.322353	470.233348	-244.662895	836.377557	338.029962	-347.678418	751.244154	285.907622	-398.934073	710.416893	192.285332	-320.248569	657.202036	558.530222	-265.079916	645.103234	337.850551	-267.199986	623.310956	385.478689	-166.353671	545.799678	126.594011	-302.469997	757.997252	65.149562	-296.030164	706.57402	49.587974	-397.640606	930.67555	1418.120057	-490.576847	907.358173	1429.270935	-190.037419	1001.336922	1346.183653	-313.760037	871.520115	1457.469629	-342.194734	815.699069	1351.604333	-98.442201	735.89656	1322.199823	-136.434188	732.6333980000001	1265.670452	-61.117799	676.036919	1224.083187	-35.51485	650.78541	1205.617823	-106.162946	885.049502	1307.579753	-582.311212	831.746033	1241.131533	-560.124725	875.651102	1215.195202	-629.711616	861.175263	1136.632183	-667.792209	829.039686	1101.998647	-609.29344	758.218408	1139.557428	-23.332348	853.458993	1054.729738	-79.810473	798.286776	1015.794269	-54.046694	970.337865	1144.374812	-617.242852	1060.815113	1106.16465	-511.511652	1075.39541	1076.225789	-571.257739	
54	1.3	898.091512	945.5373970000001	-446.372637	904.456494	955.614877	-204.670122	739.917332	1004.352184	-373.771913	736.969633	1000.738359	-275.065417	937.965295	750.163662	-140.452216	1039.482843	717.268095	-149.967781	1045.009788	616.27444	-157.137745	847.366473	745.916499	-482.998405	892.748483	638.2175140000001	-456.631659	824.300628	535.0135320000001	-432.83857	985.414397	485.204842	-234.912639	901.134825	499.032277	-183.618447	798.667677	460.449167	-246.544623	803.1613	338.851857	-350.262816	716.810556	290.242197	-401.162956	674.711238	196.684386	-323.338382	674.185824	535.728394	-265.548014	690.379261	315.49794	-269.906878	661.4315350000001	359.189615	-167.989503	509.370479	135.441901	-305.487724	717.982665	64.87302699999999	-296.703197	665.639464	48.532852	-398.281504	932.1537970000001	1424.02931	-488.931658	904.468794	1433.485172	-189.578864	1000.569754	1350.992035	-312.122336	870.2669990000001	1461.506961	-341.2719	808.433363	1359.843682	-100.205126	729.6827510000001	1332.602178	-140.965949	721.698304	1276.49491	-65.482815	663.336554	1236.455458	-41.735354	640.001001	1219.246955	-113.13103	893.255106	1313.233557	-582.793999	839.447123	1246.376616	-565.012731	886.7561889999999	1219.598182	-629.758161	875.254599	1140.655399	-667.883294	842.7203459999999	1105.208441	-609.611857	742.5130830000001	1149.434594	-28.028123	837.521111	1063.081958	-81.507856	779.863885	1024.930732	-60.043132	982.2814990000001	1154.040032	-614.259668	1071.364599	1122.843189	-505.053417	1089.318394	1091.016878	-562.304671	
55	1.31	896.549002	948.276036	-447.605927	907.366506	961.257212	-206.725492	739.740872	1008.440595	-372.376237	737.947975	1006.081656	-273.642651	946.116984	763.393188	-140.283735	1048.828729	735.789643	-151.516105	1058.951466	634.187519	-158.704136	836.669438	748.721887	-482.34745	874.793813	637.998612	-457.124997	799.395289	538.992535	-433.889293	1009.518119	494.097417	-235.438704	924.015204	499.791219	-185.560254	826.3403970000001	449.649452	-248.124996	769.815238	342.581594	-352.177568	682.697369	297.361019	-404.367776	639.919039	203.066145	-326.247032	693.0534740000001	510.421992	-266.369966	737.783188	294.168508	-273.211036	702.121155	332.607519	-170.485826	474.824221	146.182262	-309.037275	678.250646	64.12634199999999	-297.290329	625.017815	47.403108	-398.859182	933.895067	1430.734205	-486.890365	901.988995	1438.362543	-189.117188	1000.220352	1356.643648	-310.323958	869.642606	1466.452964	-340.357805	802.130978	1368.98304	-102.144483	724.502075	1343.459983	-145.566115	712.2032819999999	1287.899596	-69.96437400000001	652.114718	1249.389119	-48.027878	630.948594	1233.479047	-120.342748	899.891838	1319.774743	-582.296158	845.8390470000001	1252.69929	-569.729846	897.717145	1225.397464	-629.351212	888.522264	1146.011661	-667.5769790000001	855.044589	1110.133826	-609.555805	728.329428	1160.184825	-33.047219	822.912989	1072.374824	-84.272206	763.625277	1035.263735	-66.219281	992.9286090000001	1164.448026	-610.614016	1079.895987	1140.30532	-498.173849	1101.161204	1106.555117	-552.836855	
56	1.32	895.361253	951.062079	-449.106187	910.473867	967.022368	-208.59543	740.281038	1013.018105	-370.993338	739.2297119999999	1012.309906	-272.131154	952.986846	776.165478	-139.983603	1056.438705	753.196641	-152.822625	1070.59737	651.286686	-160.263472	825.299612	753.314867	-481.816968	856.75882	640.748789	-458.656827	775.859296	545.657541	-435.593749	1032.073746	502.205772	-236.103475	946.070188	499.425473	-187.591968	854.471117	438.061315	-249.314197	737.968163	349.168588	-354.692726	650.112439	306.875091	-408.401003	607.041883	211.329902	-329.270264	714.440363	483.154461	-267.682099	786.982398	274.350229	-276.529782	745.353053	306.554366	-173.790702	443.161972	158.843377	-312.660852	638.904702	62.996213	-297.764436	584.930493	46.419483	-399.394617	935.690597	1437.960508	-484.603351	899.92944	1443.908511	-188.581065	1000.169538	1363.005578	-308.314978	869.993101	1472.23047	-339.737753	797.049518	1378.706568	-104.233168	720.605981	1354.572344	-150.350166	704.282876	1299.536601	-74.60105799999999	642.429074	1262.586213	-54.451479	623.413729	1247.890867	-127.739361	905.065319	1326.813742	-581.318082	851.448605	1259.775207	-573.228846	908.307315	1232.29336	-628.790297	900.881711	1152.139605	-666.789563	865.907293	1116.132003	-609.289752	715.725558	1171.447615	-38.267655	809.703976	1082.09215	-87.67353	749.177692	1046.021977	-72.28167500000001	1002.262812	1175.235689	-606.355179	1086.399629	1158.012415	-490.585912	1111.12821	1122.572408	-543.374635	
